<svg xmlns="http://www.w3.org/2000/svg" viewBox="595 1130 710 710">
<g>
	<path fill="#213C31" d="M1271.36,1466.79c-0.12-1.21-0.25-2.41-0.39-3.61c-0.15-1.37-0.32-2.74-0.49-4.1
		c-0.16-1.26-0.32-2.52-0.5-3.78c-22.15-159.32-158.92-281.98-324.34-281.98c-165.39,0-302.16,122.66-324.31,281.98
		c-0.18,1.26-0.34,2.52-0.5,3.78c-0.33,2.56-0.62,5.13-0.88,7.71c-1.12,11-1.69,22.17-1.69,33.47
		c0,139.92,87.77,259.34,211.26,306.2c0.2,0.08,0.39,0.16,0.59,0.23c0.06,0.02,0.12,0.05,0.18,0.07c0.07,0.03,0.15,0.05,0.22,0.08
		c28.02,10.53,57.86,17.33,88.93,19.78v-3.74c0-7.2-0.38-14.37-1.11-21.48c-53.92-4.83-105.02-23.91-148.85-55.52
		c-0.45-0.33-0.91-0.66-1.36-0.99c-3.64-2.63-7.22-5.38-10.76-8.19c-72.15-57.64-113.55-143.64-113.55-235.92
		c0-80.62,31.4-156.42,88.4-213.45c57.03-57,132.81-88.4,213.43-88.4c80.64,0,156.45,31.4,213.45,88.4
		c57.01,57.03,88.41,132.83,88.41,213.45c0,92.26-41.39,178.26-113.56,235.93c-3.53,2.82-7.1,5.55-10.74,8.18
		c-0.46,0.34-0.92,0.67-1.38,0.99c-43.8,31.6-94.88,50.69-148.84,55.52c-0.74,7.11-1.11,14.28-1.11,21.48v3.74
		c30.98-2.45,60.75-9.21,88.7-19.69c124.13-46.54,212.48-166.29,212.48-306.67C1273.05,1488.96,1272.48,1477.79,1271.36,1466.79z"/>
	<g>
		<path fill="#213C31" d="M920.06,1822.99v3.69c-0.21-0.02-0.41-0.04-0.62-0.06c-31.07-2.45-60.91-9.25-88.93-19.78
			c-0.07-0.03-0.15-0.05-0.22-0.08c-0.06-0.02-0.12-0.05-0.18-0.07c-0.2-0.07-0.39-0.15-0.59-0.23
			c-30.26-11.81-58.28-28.1-83.25-48.07l23.21-12.51l45.51-24.53l21.72-84.61l31.97,4.47l-16.98,24.26l23.7,29.77
			c24.53,30.79,39.6,67.89,43.58,106.78C919.69,1808.95,920.06,1815.95,920.06,1822.99z"/>
		<path fill="#213C31" d="M1145.03,1758.39c-25.29,20.23-53.73,36.69-84.46,48.54c-27.95,10.48-57.72,17.24-88.7,19.69
			c-0.21,0.02-0.42,0.04-0.63,0.06v-3.69c0-7.04,0.36-14.04,1.08-20.97c3.98-38.89,19.05-75.99,43.56-106.78l23.72-29.77
			l-16.99-24.26l31.98-4.47l21.7,84.61l45.53,24.53L1145.03,1758.39z"/>
	</g>
	<path fill="#C8A16C" d="M1109.32,1500.26c0,90.24-73.43,163.67-163.67,163.67s-163.66-73.43-163.66-163.67
		c0-90.24,73.41-163.66,163.66-163.66S1109.32,1410.01,1109.32,1500.26z"/>
	<path fill="#7A5F3A" d="M1089.39,1592.92c-30.45,47.13-83.44,78.32-143.73,78.32c-94.44,0-170.99-76.56-170.99-170.98
		c0-60.28,31.2-113.27,78.31-143.71c-17.25,26.7-27.25,58.51-27.25,92.65c0,94.44,76.56,170.98,170.99,170.98
		C1030.86,1620.18,1062.69,1610.17,1089.39,1592.92z"/>
	<path fill="#213C31" d="M945.65,1316.78c-101.17,0-183.48,82.31-183.48,183.48c0,101.19,82.31,183.49,183.48,183.49
		c101.19,0,183.49-82.31,183.49-183.49C1129.14,1399.09,1046.83,1316.78,945.65,1316.78z M945.65,1658.75
		c-87.39,0-158.48-71.11-158.48-158.5c0-87.39,71.09-158.48,158.48-158.48s158.5,71.09,158.5,158.48
		C1104.14,1587.64,1033.03,1658.75,945.65,1658.75z"/>
</g>
</svg>
