<svg version="1.1" id="Layer_1" xmlns="http://www.w3.org/2000/svg" xmlns:xlink="http://www.w3.org/1999/xlink" x="0px" y="0px"
	 width="100%" viewBox="0 0 202 312" enable-background="new 0 0 202 312" xml:space="preserve">
<path fill="#DBC08D" opacity="1.000000" stroke="none"
	d="
M98.934937,13.101176
	C100.382217,12.752873 101.829506,12.404571 103.722908,12.431424
	C105.464645,12.844168 106.760254,12.881754 108.055870,12.919340
	C109.123528,12.950541 110.191193,12.981743 111.923065,13.311753
	C114.109558,13.726302 115.631844,13.842041 117.154121,13.957779
	C117.154121,13.957779 117.588936,13.974142 117.951614,14.216214
	C118.871246,14.314457 119.428185,14.170627 119.985130,14.026796
	C145.268661,20.030354 162.052505,35.564133 171.021301,59.741421
	C172.282639,63.141598 172.940765,66.765541 173.617462,70.985847
	C173.265961,80.144325 173.175095,88.602852 173.084229,97.061386
	C169.661880,116.624176 158.926620,131.328766 142.387604,141.704193
	C113.943535,159.548019 78.141762,155.022293 54.610004,131.027451
	C28.174597,104.071815 27.884708,59.619362 54.180840,32.557617
	C63.294086,23.179047 74.347794,16.868578 87.875862,14.273722
	C91.996147,14.066485 95.465546,13.583831 98.934937,13.101176
z"/>
<path fill="#1D3B2B" opacity="1.000000" stroke="none"
	d="
M169.033936,162.858643
	C174.595581,167.821640 174.654236,171.199020 170.172531,177.880936
	C159.350967,194.015091 148.255127,209.995041 138.163605,226.580948
	C127.324615,244.395340 120.761803,264.021851 116.702515,284.475677
	C116.091011,287.556946 115.342049,290.666992 114.174179,293.569611
	C111.975777,299.033569 106.891663,300.712921 101.280251,297.557983
	C99.624344,294.601654 97.979599,292.220551 97.162315,289.583008
	C93.589684,278.053375 90.348724,266.420654 86.743469,254.901688
	C86.169716,253.068558 84.350220,251.625320 83.106659,250.001816
	C74.760468,230.034225 63.733356,211.596771 51.203545,194.011017
	C50.452866,192.957428 50.001011,191.690933 49.200859,189.882095
	C47.978985,188.169128 46.966366,187.097565 45.953751,186.026016
	C45.953747,186.026016 46.006481,186.012589 45.994217,185.661072
	C43.044304,181.204910 40.106659,177.100281 37.169014,172.995651
	C34.583015,168.455978 36.842979,165.484863 40.823181,162.908630
	C41.222878,162.876053 40.983456,163.054947 41.293907,163.333466
	C42.417450,163.738312 43.230495,163.974747 44.043648,163.975113
	C84.116997,163.993256 124.190369,163.999405 164.263672,163.952591
	C165.507156,163.951141 166.749969,163.378326 168.246658,162.986115
	C168.678116,162.886459 168.856033,162.872543 169.033936,162.858643
z"/>
<path fill="#FCFBF9" opacity="1.000000" stroke="none"
	d="
M168.903107,162.483337
	C168.856033,162.872543 168.678116,162.886459 167.791824,162.861816
	C125.701797,162.788986 84.320160,162.753189 42.938519,162.734436
	C42.286880,162.734131 41.635143,162.943436 40.983456,163.054947
	C40.983456,163.054947 41.222878,162.876053 41.156166,162.742340
	C42.485088,162.073334 43.879745,161.073334 45.276512,161.070374
	C85.080284,160.986069 124.884293,160.991074 164.688171,161.048264
	C166.050034,161.050217 167.410934,161.739258 168.903107,162.483337
z"/>
<path fill="#253329" opacity="1.000000" stroke="none"
	d="
M83.127548,250.372803
	C84.350220,251.625320 86.169716,253.068558 86.743469,254.901688
	C90.348724,266.420654 93.589684,278.053375 97.162315,289.583008
	C97.979599,292.220551 99.624344,294.601654 100.941711,297.442017
	C98.944588,294.410339 96.226753,291.268341 94.965286,287.622437
	C90.745605,275.426697 87.046761,263.050751 83.127548,250.372803
z"/>
<path fill="#D6B67D" opacity="1.000000" stroke="none"
	d="
M173.324249,96.747574
	C173.175095,88.602852 173.265961,80.144325 173.624786,71.381012
	C173.783234,79.528748 173.673737,87.981262 173.324249,96.747574
z"/>
<path fill="#2E3830" opacity="1.000000" stroke="none"
	d="
M37.126633,173.346268
	C40.106659,177.100281 43.044304,181.204910 45.974831,185.680328
	C43.006561,181.933029 40.045406,177.814957 37.126633,173.346268
z"/>
<path fill="#D7B87F" opacity="1.000000" stroke="none"
	d="
M98.495529,13.064127
	C95.465546,13.583831 91.996147,14.066485 88.266663,14.279527
	C91.356422,13.682302 94.706276,13.354691 98.495529,13.064127
z"/>
<path fill="#D7B87F" opacity="1.000000" stroke="none"
	d="
M107.815414,12.655361
	C106.760254,12.881754 105.464645,12.844168 104.102783,12.482565
	C105.216019,12.236160 106.395485,12.313772 107.815414,12.655361
z"/>
<path fill="#2E3830" opacity="1.000000" stroke="none"
	d="
M46.015381,186.346436
	C46.966366,187.097565 47.978985,188.169128 48.997078,189.602142
	C48.027374,188.864670 47.052193,187.765778 46.015381,186.346436
z"/>
<path fill="#D7B87F" opacity="1.000000" stroke="none"
	d="
M116.893806,13.670200
	C115.631844,13.842041 114.109558,13.726302 112.321854,13.349613
	C113.582115,13.186650 115.107803,13.284636 116.893806,13.670200
z"/>
<path fill="#D7B87F" opacity="1.000000" stroke="none"
	d="
M119.658203,13.987743
	C119.428185,14.170627 118.871246,14.314457 118.167053,14.246571
	C118.456963,14.006132 118.894112,13.977410 119.658203,13.987743
z"/>
<path fill="#0E120F" opacity="1.000000" stroke="none"
	d="
M41.293907,163.333466
	C41.635143,162.943436 42.286880,162.734131 42.938519,162.734436
	C84.320160,162.753189 125.701797,162.788986 167.538269,162.947571
	C166.749969,163.378326 165.507156,163.951141 164.263672,163.952591
	C124.190369,163.999405 84.116997,163.993256 44.043648,163.975113
	C43.230495,163.974747 42.417450,163.738312 41.293907,163.333466
z"/>
</svg>
