<svg xmlns="http://www.w3.org/2000/svg" viewBox="590 1130 2800 740">
<g>
	<g>
		<path fill="#213C31" d="M1324.79,1381.02v-50.37h265.5v50.37h-102.75v283.19h-59.77v-283.19H1324.79z"/>
		<path fill="#213C31" d="M1693.18,1669.35c-25.22,0-46.9-5.29-65.03-15.89c-18.13-10.59-32.09-25.52-41.86-44.77
			c-9.78-19.25-14.66-41.94-14.66-68.05c0-25.82,4.81-48.43,14.44-67.83c9.63-19.4,23.28-34.59,40.97-45.56
			c17.69-10.97,38.47-16.45,62.35-16.45c15.22,0,29.74,2.46,43.54,7.39c13.8,4.92,26.04,12.54,36.71,22.83
			c10.67,10.3,19.03,23.4,25.07,39.29c6.04,15.9,9.07,34.81,9.07,56.75v18.36h-204.61v-39.62h175.73l-27.31,11.64
			c0-14.03-2.17-26.38-6.49-37.05c-4.33-10.67-10.78-18.99-19.36-24.96c-8.58-5.97-19.29-8.95-32.12-8.95
			c-12.84,0-23.73,3.02-32.68,9.07c-8.95,6.05-15.78,14.1-20.48,24.18c-4.7,10.08-7.05,21.31-7.05,33.69v27.31
			c0,15.82,2.69,29.18,8.06,40.07c5.37,10.9,12.91,19.1,22.61,24.62c9.7,5.53,20.97,8.28,33.8,8.28c8.51,0,16.23-1.23,23.17-3.69
			c6.94-2.46,12.94-6.12,18.02-10.97c5.07-4.85,8.88-10.78,11.42-17.8l53.5,10.97c-4.03,13.43-10.89,25.19-20.59,35.26
			c-9.7,10.08-21.83,17.91-36.38,23.51C1728.44,1666.55,1711.83,1669.35,1693.18,1669.35z"/>
		<path fill="#213C31" d="M1955.7,1669.35c-25.22,0-46.9-5.29-65.03-15.89c-18.13-10.59-32.09-25.52-41.86-44.77
			c-9.78-19.25-14.66-41.94-14.66-68.05c0-25.82,4.81-48.43,14.44-67.83c9.63-19.4,23.28-34.59,40.96-45.56
			c17.69-10.97,38.47-16.45,62.35-16.45c15.22,0,29.73,2.46,43.54,7.39c13.8,4.92,26.04,12.54,36.72,22.83
			c10.67,10.3,19.03,23.4,25.07,39.29c6.05,15.9,9.07,34.81,9.07,56.75v18.36h-204.61v-39.62h175.73l-27.31,11.64
			c0-14.03-2.17-26.38-6.49-37.05c-4.33-10.67-10.78-18.99-19.36-24.96c-8.59-5.97-19.29-8.95-32.13-8.95
			c-12.84,0-23.73,3.02-32.68,9.07c-8.96,6.05-15.78,14.1-20.48,24.18c-4.7,10.08-7.05,21.31-7.05,33.69v27.31
			c0,15.82,2.69,29.18,8.06,40.07c5.37,10.9,12.91,19.1,22.61,24.62c9.7,5.53,20.97,8.28,33.81,8.28c8.51,0,16.23-1.23,23.17-3.69
			c6.94-2.46,12.95-6.12,18.02-10.97c5.07-4.85,8.88-10.78,11.42-17.8l53.5,10.97c-4.03,13.43-10.9,25.19-20.59,35.26
			c-9.7,10.08-21.83,17.91-36.38,23.51C1990.96,1666.55,1974.36,1669.35,1955.7,1669.35z"/>
		<path fill="#213C31" d="M2199.87,1668.68c-19.7,0-37.35-5.04-52.95-15.11c-15.59-10.07-27.87-24.74-36.82-43.99
			c-8.95-19.25-13.43-42.61-13.43-70.07c0-27.76,4.59-51.23,13.77-70.4c9.18-19.18,21.56-33.69,37.16-43.54
			c15.59-9.85,32.94-14.77,52.05-14.77c14.92,0,27.12,2.5,36.6,7.5c9.48,5,17.01,10.93,22.61,17.8c5.6,6.87,9.81,13.28,12.65,19.25
			h2.46v-124.69h58.2v333.55h-57.08v-39.62h-3.58c-2.99,5.97-7.35,12.39-13.1,19.25c-5.74,6.87-13.32,12.73-22.72,17.57
			C2226.29,1666.25,2214.35,1668.68,2199.87,1668.68z M2215.77,1620.77c12.68,0,23.43-3.39,32.24-10.18
			c8.81-6.79,15.52-16.3,20.15-28.54c4.62-12.23,6.94-26.49,6.94-42.76c0-16.26-2.28-30.4-6.83-42.42
			c-4.55-12.01-11.27-21.38-20.15-28.1c-8.88-6.71-19.66-10.07-32.35-10.07c-13.13,0-24.1,3.47-32.91,10.41
			c-8.81,6.94-15.45,16.49-19.92,28.65c-4.48,12.16-6.72,26.01-6.72,41.53c0,15.53,2.24,29.44,6.72,41.75s11.15,22.01,20.03,29.1
			C2191.85,1617.23,2202.78,1620.77,2215.77,1620.77z"/>
		<path fill="#213C31" d="M2425.05,1668.01c-10,0-18.47-3.43-25.41-10.3c-6.94-6.86-10.41-15.3-10.41-25.3
			c0-10.15,3.47-18.65,10.41-25.52c6.94-6.86,15.41-10.3,25.41-10.3c10.14,0,18.69,3.43,25.63,10.3
			c6.94,6.87,10.41,15.37,10.41,25.52c0,10-3.47,18.43-10.41,25.3S2435.19,1668.01,2425.05,1668.01z"/>
		<path fill="#213C31" d="M2618.24,1669.35c-24.33,0-45.45-5.41-63.36-16.23c-17.91-10.82-31.75-25.89-41.53-45.22
			c-9.78-19.32-14.66-41.82-14.66-67.49c0-25.97,4.88-48.69,14.66-68.17c9.77-19.47,23.62-34.59,41.53-45.33
			c17.91-10.75,39.03-16.12,63.36-16.12c13.88,0,26.79,1.79,38.72,5.37c11.94,3.58,22.61,8.77,32.01,15.56
			c9.4,6.79,17.27,15.04,23.62,24.74s10.86,20.67,13.55,32.91l-54.4,11.42c-1.65-6.42-4-12.27-7.05-17.57
			c-3.06-5.29-6.83-9.81-11.3-13.54c-4.48-3.73-9.63-6.61-15.45-8.62c-5.82-2.02-12.24-3.02-19.25-3.02
			c-13.58,0-24.85,3.62-33.81,10.86c-8.95,7.24-15.67,17.02-20.15,29.33c-4.48,12.31-6.71,26.31-6.71,41.98
			c0,15.37,2.24,29.25,6.71,41.64c4.48,12.39,11.19,22.2,20.15,29.44c8.96,7.24,20.22,10.86,33.81,10.86
			c7.16,0,13.69-1.04,19.59-3.14c5.89-2.09,11.11-5.07,15.67-8.95c4.55-3.88,8.39-8.58,11.53-14.1c3.13-5.52,5.45-11.64,6.94-18.36
			l54.4,11.42c-2.69,12.54-7.21,23.73-13.55,33.58c-6.34,9.85-14.25,18.25-23.73,25.18c-9.48,6.94-20.22,12.28-32.24,16.01
			C2645.28,1667.48,2632.26,1669.35,2618.24,1669.35z"/>
		<path fill="#213C31" d="M2822.46,1330.65v333.55h-58.2v-333.55H2822.46z"/>
		<path fill="#213C31" d="M2960.5,1667.34c-17.16,0-32.2-3.66-45.11-10.97c-12.91-7.31-22.91-18.02-30-32.13
			c-7.09-14.1-10.63-31.15-10.63-51.15v-159.17h58.2v150.21c0,16.72,4.36,29.85,13.09,39.4c8.73,9.55,20.71,14.33,35.93,14.33
			c10.3,0,19.48-2.24,27.53-6.71c8.06-4.48,14.36-11.04,18.92-19.7c4.55-8.65,6.83-18.95,6.83-30.89v-146.63h58.43v250.28h-55.29
			l-0.67-61.79h4.48c-7.02,21.79-17.39,38.06-31.12,48.8C2997.36,1661.96,2980.5,1667.34,2960.5,1667.34z"/>
		<path fill="#213C31" d="M3278.35,1668.68c-14.18,0-26.04-2.43-35.6-7.27c-9.55-4.85-17.16-10.71-22.83-17.57
			c-5.67-6.86-10-13.28-12.99-19.25h-3.8v39.62h-56.86v-333.55h58.2v124.69h2.46c2.99-5.97,7.24-12.39,12.76-19.25
			c5.52-6.86,13.02-12.8,22.5-17.8c9.48-5,21.6-7.5,36.38-7.5c19.4,0,36.86,4.92,52.39,14.77c15.52,9.85,27.87,24.37,37.05,43.54
			c9.18,19.18,13.77,42.65,13.77,70.4c0,27.46-4.48,50.82-13.43,70.07c-8.95,19.25-21.23,33.91-36.82,43.99
			C3315.92,1663.64,3298.19,1668.68,3278.35,1668.68z M3262.68,1620.77c12.98,0,23.88-3.54,32.68-10.63
			c8.8-7.09,15.45-16.79,19.93-29.1s6.71-26.23,6.71-41.75c0-15.52-2.2-29.36-6.6-41.53c-4.4-12.16-11.01-21.71-19.81-28.65
			c-8.81-6.94-19.78-10.41-32.91-10.41c-12.84,0-23.66,3.36-32.46,10.07c-8.81,6.72-15.49,16.09-20.03,28.1
			c-4.56,12.02-6.83,26.16-6.83,42.42c0,16.27,2.27,30.52,6.83,42.76c4.55,12.24,11.27,21.75,20.15,28.54
			C3239.2,1617.38,3249.99,1620.77,3262.68,1620.77z"/>
	</g>
	<g>
		<g>
			<path fill="#213C31" d="M771.57,1593.19l20.84-29.75l-39.24-5.48l-26.62,99.7l-108.32,39.72l237.21,141.33v-52.26
				c0-56.94-19.31-112.19-54.78-156.72L771.57,1593.19z"/>
			<path fill="#213C31" d="M1047.12,1657.66l-26.62-99.7l-39.24,5.48l20.84,29.75l-29.09,36.53c-35.47,44.54-54.78,99.79-54.78,156.72
				v52.26l237.21-141.33L1047.12,1657.66z"/>
		</g>
		<path fill="#C8A16C" d="M1088.45,1386.42c0,111.17-90.45,201.6-201.62,201.6c-111.17,0-201.6-90.43-201.6-201.6
			c0-111.19,90.43-201.62,201.6-201.62C997.99,1184.8,1088.45,1275.23,1088.45,1386.42z"/>
		<path fill="#7A5F3A" d="M1063.18,1500.1c-37.35,57.82-102.37,96.09-176.34,96.09c-115.86,0-209.79-93.93-209.79-209.77
			c0-73.95,38.27-138.97,96.07-176.32c-21.16,32.75-33.43,71.78-33.43,113.68c0,115.86,93.93,209.77,209.79,209.77
			C991.38,1533.55,1030.43,1521.26,1063.18,1500.1z"/>
		<path fill="#213C31" d="M886.83,1161.3c-124.12,0-225.1,100.98-225.1,225.12c0,124.12,100.98,225.1,225.1,225.1
			c124.14,0,225.12-100.98,225.12-225.1C1111.95,1262.28,1010.97,1161.3,886.83,1161.3z M886.83,1580.86
			c-107.22,0-194.43-87.22-194.43-194.43c0-107.24,87.22-194.45,194.43-194.45c107.22,0,194.46,87.22,194.46,194.45
			C1081.28,1493.64,994.04,1580.86,886.83,1580.86z"/>
	</g>
</g>
</svg>
