<?xml version="1.0" encoding="utf-8"?>
<!-- Generator: Adobe Illustrator 24.1.2, SVG Export Plug-In . SVG Version: 6.00 Build 0)  -->
<svg version="1.1" id="Layer_1" xmlns="http://www.w3.org/2000/svg" xmlns:xlink="http://www.w3.org/1999/xlink" x="0px" y="0px"
	 viewBox="0 0 4000 3000" style="enable-background:new 0 0 4000 3000;" xml:space="preserve">
<style type="text/css">
	.st0{fill:#213C31;}
	.st1{fill:#C8A16C;}
	.st2{fill:#7A5F3A;}
</style>
<g>
	<g>
		<path class="st0" d="M1394.37,1385.3v-48.66h256.51v48.66h-99.28v273.6h-57.75v-273.6H1394.37z"/>
		<path class="st0" d="M1750.3,1663.88c-24.37,0-45.31-5.11-62.83-15.35c-17.52-10.24-31-24.66-40.45-43.26
			c-9.44-18.6-14.17-40.52-14.17-65.75c0-24.95,4.65-46.79,13.95-65.54c9.3-18.74,22.49-33.42,39.58-44.01s37.17-15.9,60.24-15.9
			c14.71,0,28.73,2.38,42.07,7.14c13.34,4.76,25.16,12.11,35.47,22.06c10.31,9.95,18.38,22.6,24.23,37.96
			c5.84,15.36,8.76,33.63,8.76,54.83v17.73h-197.69v-38.28h169.78l-26.39,11.25c0-13.55-2.09-25.49-6.27-35.8
			c-4.18-10.31-10.42-18.35-18.71-24.12c-8.29-5.76-18.64-8.65-31.04-8.65c-12.4,0-22.92,2.92-31.58,8.76s-15.25,13.63-19.79,23.36
			c-4.54,9.73-6.81,20.59-6.81,32.55v26.39c0,15.28,2.6,28.19,7.79,38.71c5.19,10.53,12.47,18.46,21.85,23.79
			c9.37,5.34,20.26,8,32.66,8c8.22,0,15.68-1.19,22.39-3.57c6.7-2.38,12.51-5.91,17.41-10.6c4.9-4.69,8.58-10.42,11.03-17.2
			l51.69,10.6c-3.89,12.98-10.53,24.33-19.9,34.07c-9.37,9.73-21.09,17.3-35.15,22.71
			C1784.36,1661.18,1768.32,1663.88,1750.3,1663.88z"/>
		<path class="st0" d="M2003.94,1663.88c-24.37,0-45.31-5.11-62.83-15.35c-17.52-10.24-31-24.66-40.44-43.26
			c-9.44-18.6-14.17-40.52-14.17-65.75c0-24.95,4.65-46.79,13.95-65.54c9.3-18.74,22.49-33.42,39.58-44.01
			c17.09-10.6,37.16-15.9,60.24-15.9c14.71,0,28.73,2.38,42.07,7.14c13.34,4.76,25.16,12.11,35.47,22.06
			c10.31,9.95,18.38,22.6,24.22,37.96c5.84,15.36,8.76,33.63,8.76,54.83v17.73H1913.1v-38.28h169.79l-26.39,11.25
			c0-13.55-2.09-25.49-6.27-35.8c-4.18-10.31-10.42-18.35-18.71-24.12c-8.3-5.76-18.64-8.65-31.04-8.65
			c-12.4,0-22.93,2.92-31.58,8.76c-8.65,5.84-15.25,13.63-19.79,23.36c-4.54,9.73-6.81,20.59-6.81,32.55v26.39
			c0,15.28,2.59,28.19,7.79,38.71c5.19,10.53,12.47,18.46,21.84,23.79c9.37,5.34,20.26,8,32.66,8c8.22,0,15.68-1.19,22.39-3.57
			c6.7-2.38,12.51-5.91,17.41-10.6c4.9-4.69,8.58-10.42,11.03-17.2l51.69,10.6c-3.89,12.98-10.53,24.33-19.9,34.07
			c-9.38,9.73-21.09,17.3-35.15,22.71C2038,1661.18,2021.96,1663.88,2003.94,1663.88z"/>
		<path class="st0" d="M2239.84,1663.23c-19.03,0-36.09-4.87-51.15-14.6c-15.07-9.73-26.93-23.9-35.58-42.5
			c-8.65-18.6-12.97-41.17-12.97-67.7c0-26.82,4.43-49.49,13.3-68.02s20.83-32.55,35.9-42.07c15.07-9.52,31.83-14.27,50.29-14.27
			c14.42,0,26.21,2.42,35.36,7.25c9.16,4.83,16.44,10.56,21.85,17.19c5.41,6.63,9.48,12.83,12.22,18.6h2.38v-120.47h56.23v322.27
			h-55.15v-38.28h-3.46c-2.89,5.77-7.11,11.97-12.66,18.6c-5.55,6.63-12.87,12.3-21.95,16.98S2253.82,1663.23,2239.84,1663.23z
			 M2255.2,1616.95c12.25,0,22.64-3.28,31.14-9.84c8.51-6.56,15-15.75,19.47-27.58c4.47-11.82,6.7-25.59,6.7-41.31
			c0-15.71-2.2-29.38-6.6-40.98c-4.4-11.61-10.89-20.66-19.47-27.15c-8.58-6.49-19-9.73-31.25-9.73c-12.69,0-23.29,3.35-31.79,10.06
			c-8.51,6.7-14.92,15.93-19.25,27.68c-4.32,11.75-6.49,25.13-6.49,40.12c0,15,2.17,28.44,6.49,40.34
			c4.32,11.9,10.78,21.27,19.36,28.12C2232.09,1613.52,2242.65,1616.95,2255.2,1616.95z"/>
		<path class="st0" d="M2457.4,1662.58c-9.66,0-17.84-3.32-24.55-9.95c-6.71-6.63-10.06-14.78-10.06-24.44
			c0-9.8,3.35-18.02,10.06-24.66c6.7-6.63,14.88-9.95,24.55-9.95c9.8,0,18.06,3.32,24.76,9.95c6.71,6.63,10.06,14.85,10.06,24.66
			c0,9.66-3.35,17.81-10.06,24.44C2475.45,1659.26,2467.2,1662.58,2457.4,1662.58z"/>
		<path class="st0" d="M2644.05,1663.88c-23.51,0-43.91-5.22-61.21-15.68c-17.3-10.45-30.68-25.02-40.12-43.69
			c-9.45-18.67-14.16-40.41-14.16-65.21c0-25.09,4.72-47.04,14.16-65.86c9.44-18.82,22.82-33.42,40.12-43.8
			c17.3-10.38,37.71-15.57,61.21-15.57c13.41,0,25.88,1.73,37.41,5.19c11.54,3.46,21.85,8.47,30.93,15.04
			c9.09,6.56,16.69,14.53,22.82,23.9c6.13,9.37,10.49,19.97,13.09,31.79l-52.56,11.03c-1.59-6.2-3.86-11.86-6.81-16.98
			c-2.96-5.11-6.6-9.48-10.92-13.08c-4.33-3.6-9.3-6.38-14.93-8.33c-5.62-1.95-11.82-2.92-18.6-2.92c-13.12,0-24.01,3.5-32.66,10.49
			c-8.65,7-15.14,16.44-19.47,28.33c-4.32,11.9-6.49,25.42-6.49,40.56c0,14.85,2.16,28.26,6.49,40.23
			c4.32,11.97,10.82,21.45,19.47,28.44c8.65,6.99,19.54,10.49,32.66,10.49c6.92,0,13.23-1.01,18.92-3.03
			c5.69-2.02,10.74-4.9,15.14-8.65c4.4-3.75,8.11-8.29,11.14-13.63c3.03-5.33,5.26-11.25,6.71-17.73l52.56,11.03
			c-2.6,12.11-6.96,22.93-13.09,32.44c-6.13,9.52-13.77,17.63-22.93,24.33c-9.16,6.7-19.54,11.87-31.14,15.47
			C2670.18,1662.08,2657.6,1663.88,2644.05,1663.88z"/>
		<path class="st0" d="M2841.36,1336.64v322.27h-56.23v-322.27H2841.36z"/>
		<path class="st0" d="M2974.72,1661.94c-16.58,0-31.11-3.53-43.58-10.6c-12.47-7.06-22.13-17.41-28.98-31.04
			c-6.85-13.62-10.27-30.1-10.27-49.42V1417.1h56.23v145.13c0,16.15,4.22,28.84,12.65,38.07c8.44,9.23,20.01,13.84,34.71,13.84
			c9.95,0,18.82-2.16,26.6-6.49c7.79-4.32,13.88-10.67,18.28-19.03c4.4-8.36,6.6-18.31,6.6-29.85V1417.1h56.45v241.81h-53.42
			l-0.65-59.7h4.33c-6.78,21.06-16.8,36.77-30.07,47.15C3010.34,1656.74,2994.04,1661.94,2974.72,1661.94z"/>
		<path class="st0" d="M3281.82,1663.23c-13.7,0-25.16-2.34-34.39-7.03c-9.23-4.68-16.58-10.35-22.06-16.98
			c-5.48-6.63-9.66-12.83-12.55-18.6h-3.68v38.28h-54.93v-322.27h56.23v120.47h2.38c2.89-5.77,6.99-11.97,12.33-18.6
			c5.34-6.63,12.58-12.36,21.74-17.19c9.16-4.83,20.87-7.25,35.15-7.25c18.75,0,35.61,4.76,50.61,14.27
			c14.99,9.52,26.93,23.54,35.8,42.07c8.87,18.53,13.3,41.2,13.3,68.02c0,26.53-4.32,49.1-12.98,67.7
			c-8.65,18.6-20.51,32.77-35.58,42.5C3318.11,1658.36,3300.99,1663.23,3281.82,1663.23z M3266.68,1616.95
			c12.54,0,23.07-3.42,31.58-10.27c8.51-6.85,14.93-16.22,19.25-28.12c4.32-11.9,6.49-25.34,6.49-40.34
			c0-14.99-2.13-28.37-6.38-40.12c-4.25-11.75-10.64-20.98-19.14-27.68c-8.51-6.7-19.11-10.06-31.79-10.06
			c-12.4,0-22.86,3.24-31.36,9.73c-8.51,6.49-14.96,15.54-19.36,27.15c-4.4,11.61-6.6,25.27-6.6,40.98c0,15.72,2.19,29.49,6.6,41.31
			c4.4,11.83,10.89,21.02,19.47,27.58C3244,1613.67,3254.42,1616.95,3266.68,1616.95z"/>
	</g>
	<g>
		<path class="st0" d="M1271.36,1466.79c-0.12-1.21-0.25-2.41-0.39-3.61c-0.15-1.37-0.32-2.74-0.49-4.1
			c-0.16-1.26-0.32-2.52-0.5-3.78c-22.15-159.32-158.92-281.98-324.34-281.98c-165.39,0-302.16,122.66-324.31,281.98
			c-0.18,1.26-0.34,2.52-0.5,3.78c-0.33,2.56-0.62,5.13-0.88,7.71c-1.12,11-1.69,22.17-1.69,33.47
			c0,139.92,87.77,259.34,211.26,306.2c0.2,0.08,0.39,0.16,0.59,0.23c0.06,0.02,0.12,0.05,0.18,0.07c0.07,0.03,0.15,0.05,0.22,0.08
			c28.02,10.53,57.86,17.33,88.93,19.78v-3.74c0-7.2-0.38-14.37-1.11-21.48c-53.92-4.83-105.02-23.91-148.85-55.52
			c-0.45-0.33-0.91-0.66-1.36-0.99c-3.64-2.63-7.22-5.38-10.76-8.19c-72.15-57.64-113.55-143.64-113.55-235.92
			c0-80.62,31.4-156.42,88.4-213.45c57.03-57,132.81-88.4,213.43-88.4c80.64,0,156.45,31.4,213.45,88.4
			c57.01,57.03,88.41,132.83,88.41,213.45c0,92.26-41.39,178.26-113.56,235.93c-3.53,2.82-7.1,5.55-10.74,8.18
			c-0.46,0.34-0.92,0.67-1.38,0.99c-43.8,31.6-94.88,50.69-148.84,55.52c-0.74,7.11-1.11,14.28-1.11,21.48v3.74
			c30.98-2.45,60.75-9.21,88.7-19.69c124.13-46.54,212.48-166.29,212.48-306.67C1273.05,1488.96,1272.48,1477.79,1271.36,1466.79z"
			/>
		<g>
			<path class="st0" d="M920.06,1822.99v3.69c-0.21-0.02-0.41-0.04-0.62-0.06c-31.07-2.45-60.91-9.25-88.93-19.78
				c-0.07-0.03-0.15-0.05-0.22-0.08c-0.06-0.02-0.12-0.05-0.18-0.07c-0.2-0.07-0.39-0.15-0.59-0.23
				c-30.26-11.81-58.28-28.1-83.25-48.07l23.21-12.51l45.51-24.53l21.72-84.61l31.97,4.47l-16.98,24.26l23.7,29.77
				c24.53,30.79,39.6,67.89,43.58,106.78C919.69,1808.95,920.06,1815.95,920.06,1822.99z"/>
			<path class="st0" d="M1145.03,1758.39c-25.29,20.23-53.73,36.69-84.46,48.54c-27.95,10.48-57.72,17.24-88.7,19.69
				c-0.21,0.02-0.42,0.04-0.63,0.06v-3.69c0-7.04,0.36-14.04,1.08-20.97c3.98-38.89,19.05-75.99,43.56-106.78l23.72-29.77
				l-16.99-24.26l31.98-4.47l21.7,84.61l45.53,24.53L1145.03,1758.39z"/>
		</g>
		<path class="st1" d="M1109.32,1500.26c0,90.24-73.43,163.67-163.67,163.67s-163.66-73.43-163.66-163.67
			c0-90.24,73.41-163.66,163.66-163.66S1109.32,1410.01,1109.32,1500.26z"/>
		<path class="st2" d="M1089.39,1592.92c-30.45,47.13-83.44,78.32-143.73,78.32c-94.44,0-170.99-76.56-170.99-170.98
			c0-60.28,31.2-113.27,78.31-143.71c-17.25,26.7-27.25,58.51-27.25,92.65c0,94.44,76.56,170.98,170.99,170.98
			C1030.86,1620.18,1062.69,1610.17,1089.39,1592.92z"/>
		<path class="st0" d="M945.65,1316.78c-101.17,0-183.48,82.31-183.48,183.48c0,101.19,82.31,183.49,183.48,183.49
			c101.19,0,183.49-82.31,183.49-183.49C1129.14,1399.09,1046.83,1316.78,945.65,1316.78z M945.65,1658.75
			c-87.39,0-158.48-71.11-158.48-158.5c0-87.39,71.09-158.48,158.48-158.48s158.5,71.09,158.5,158.48
			C1104.14,1587.64,1033.03,1658.75,945.65,1658.75z"/>
	</g>
</g>
</svg>
